<?xml version="1.0" encoding="utf-8"?>
<!-- Generator: Adobe Illustrator 22.0.1, SVG Export Plug-In . SVG Version: 6.00 Build 0)  -->
<svg version="1.1" id="Layer_1" xmlns="http://www.w3.org/2000/svg" xmlns:xlink="http://www.w3.org/1999/xlink" x="0px" y="0px"
	 viewBox="0 0 32 32" style="enable-background:new 0 0 32 32;" xml:space="preserve">
<style type="text/css">
	.st0{fill:#FFE7C7;}
</style>
<path class="st0" d="M2.3,9.1h27.4c1.3,0,2.3-1,2.3-2.3s-1-2.3-2.3-2.3H2.3C1,4.6,0,5.6,0,6.9S1,9.1,2.3,9.1z M29.7,13.7H2.3
	C1,13.7,0,14.7,0,16s1,2.3,2.3,2.3h27.4c1.3,0,2.3-1,2.3-2.3S31,13.7,29.7,13.7z M29.7,22.9H2.3c-1.3,0-2.3,1-2.3,2.3s1,2.3,2.3,2.3
	h27.4c1.3,0,2.3-1,2.3-2.3S31,22.9,29.7,22.9z"/>
</svg>
