<?xml version="1.0" encoding="utf-8"?>
<!-- Generator: Adobe Illustrator 22.0.1, SVG Export Plug-In . SVG Version: 6.00 Build 0)  -->
<svg version="1.1" id="Layer_1" xmlns="http://www.w3.org/2000/svg" xmlns:xlink="http://www.w3.org/1999/xlink" x="0px" y="0px"
	 viewBox="0 0 400 400" style="enable-background:new 0 0 400 400;" xml:space="preserve">
<style type="text/css">
	.st0{fill:#FFE7C7;}
</style>
<g>
	<path class="st0" d="M200.1,36.2c53.3,0,59.6,0.2,80.7,1.2c19.5,1,30,4.1,37.1,6.9c9.3,3.6,16,7.9,22.9,15
		c6.9,6.9,11.2,13.6,15,22.9c2.8,7.1,5.9,17.6,6.9,37.1c1,21.1,1.2,27.4,1.2,80.7s-0.2,59.6-1.2,80.7c-1,19.5-4.1,30-6.9,37.1
		c-3.6,9.3-7.9,16-15,22.9c-6.9,6.9-13.6,11.2-22.9,15c-7.1,2.8-17.6,5.9-37.1,6.9c-21.1,1-27.4,1.2-80.7,1.2s-59.6-0.2-80.7-1.2
		c-19.5-1-30-4.1-37.1-6.9c-9.3-3.6-16-7.9-22.9-15c-6.9-6.9-11.2-13.6-15-22.9c-2.8-7.1-5.9-17.6-6.9-37.1
		c-1-21.1-1.2-27.4-1.2-80.7s0.2-59.6,1.2-80.7c1-19.5,4.1-30,6.9-37.1c3.6-9.3,7.9-16,15-22.9c6.9-6.9,13.6-11.2,22.9-15
		c7.1-2.8,17.6-5.9,37.1-6.9C140.3,36.4,146.6,36.2,200.1,36.2 M200.1,0.1c-54.3,0-61.2,0.2-82.5,1.2s-35.7,4.3-48.5,9.3
		c-13.2,5.1-24.3,12-35.3,23.1S15.8,55.9,10.7,69c-4.9,12.6-8.3,27.2-9.3,48.5S0.2,145.7,0.2,200s0.2,61.2,1.2,82.5
		s4.3,35.7,9.3,48.5c5.1,13.2,12,24.3,23.1,35.3s22.3,18,35.3,23.1c12.6,4.9,27.2,8.3,48.5,9.3s28.2,1.2,82.5,1.2s61.2-0.2,82.5-1.2
		s35.7-4.3,48.5-9.3c13.2-5.1,24.3-12,35.3-23.1s18-22.3,23.1-35.3c4.9-12.6,8.3-27.2,9.3-48.5s1.2-28.2,1.2-82.5
		s-0.2-61.2-1.2-82.5s-4.3-35.7-9.3-48.5c-5.1-13.2-12-24.3-23.1-35.3s-22.3-18-35.3-23.1c-12.6-4.9-27.2-8.3-48.5-9.3
		C261.1,0.3,254.4,0.1,200.1,0.1L200.1,0.1z"/>
	<path class="st0" d="M200.1,97.4c-56.6,0-102.6,46-102.6,102.6s46,102.6,102.6,102.6s102.6-46,102.6-102.6S256.7,97.4,200.1,97.4z
		 M200.1,266.7c-36.7,0-66.7-29.8-66.7-66.7s29.8-66.7,66.7-66.7c36.7,0,66.7,29.8,66.7,66.7S236.8,266.7,200.1,266.7z"/>
	
		<ellipse transform="matrix(0.1602 -0.9871 0.9871 0.1602 165.5011 381.0072)" class="st0" cx="306.7" cy="93.2" rx="24.1" ry="24.1"/>
</g>
</svg>
