<?xml version="1.0" encoding="utf-8"?>
<!-- Generator: Adobe Illustrator 22.0.1, SVG Export Plug-In . SVG Version: 6.00 Build 0)  -->
<svg version="1.1" id="Layer_1" xmlns="http://www.w3.org/2000/svg" xmlns:xlink="http://www.w3.org/1999/xlink" x="0px" y="0px"
	 viewBox="0 0 400 400" style="enable-background:new 0 0 400 400;" xml:space="preserve">
<style type="text/css">
	.st0{fill:#F79421;}
	.st1{fill:#FFFFFF;}
	.st2{fill:#89441E;stroke:#89441E;stroke-miterlimit:10;}
	.st3{fill:#C26528;}
	.st4{fill:#DC7727;}
	.st5{fill:#C16528;}
	.st6{fill:#683B16;}
	.st7{fill:#603813;}
	.st8{fill:#89441E;}
	.st9{fill:#382411;}
</style>
<polygon class="st0" points="394.8,200 380,215.6 391.9,233.5 374.6,246.3 383.2,266 364,275.5 369,296.4 348.4,302.5 349.7,323.9 
	328.4,326.3 325.9,347.7 304.5,346.4 298.4,367 277.5,362 268,381.2 248.3,372.6 235.5,389.9 217.6,378 202,392.8 186.4,378 
	168.6,389.9 155.8,372.6 136.1,381.2 126.5,362 105.6,367 99.6,346.4 78.1,347.7 75.7,326.3 54.4,323.9 55.7,302.5 35.1,296.4 
	40.1,275.5 20.8,265.9 29.4,246.3 12.2,233.5 24,215.6 9.3,200 24,184.4 12.2,166.5 29.4,153.7 20.8,134 40.1,124.5 35.1,103.6 
	55.7,97.5 54.4,76.1 75.7,73.7 78.1,52.3 99.6,53.6 105.6,33 126.5,38 136.1,18.8 155.8,27.4 168.6,10.1 186.4,22 202,7.2 217.6,22 
	235.5,10.1 248.3,27.4 268,18.8 277.6,38 298.4,33 304.5,53.6 326,52.3 328.4,73.7 349.7,76.1 348.4,97.5 369,103.6 364,124.5 
	383.2,134.1 374.6,153.7 391.9,166.5 380,184.4 "/>
<path class="st1" d="M363.1,200h-3.5c0,43.1-17.5,82.1-45.7,110.4c-28.3,28.3-67.3,45.7-110.4,45.7c-43.1,0-82.1-17.5-110.4-45.7
	C64.7,282.1,47.3,243.1,47.3,200c0-43.1,17.5-82.1,45.7-110.4c28.3-28.3,67.3-45.7,110.4-45.7c43.1,0,82.1,17.5,110.4,45.7
	c28.3,28.3,45.7,67.3,45.7,110.4H363.1h3.5c0-90.1-73.1-163.2-163.2-163.2c-90.1,0-163.2,73.1-163.2,163.2
	c0,90.1,73.1,163.2,163.2,163.2c90.1,0,163.2-73.1,163.2-163.2H363.1z"/>
<path class="st1" d="M344.7,200h-1.8c0,38.9-15.8,74.1-41.2,99.5c-25.5,25.5-60.7,41.2-99.5,41.2c-38.9,0-74.1-15.8-99.5-41.2
	c-25.5-25.5-41.2-60.7-41.2-99.5c0-38.9,15.8-74.1,41.2-99.5c25.5-25.5,60.7-41.2,99.5-41.2c38.9,0,74,15.8,99.5,41.2
	c25.5,25.5,41.2,60.7,41.2,99.5H344.7h1.8c0-79.7-64.6-144.3-144.3-144.3c-79.7,0-144.3,64.6-144.3,144.3
	c0,79.7,64.6,144.3,144.3,144.3c79.7,0,144.3-64.6,144.3-144.3H344.7z"/>
<g>
	
		<image style="overflow:visible;opacity:0.75;" width="239" height="232" xlink:href="F8FACF0F2C21EDF2.png"  transform="matrix(1 0 0 1 86 81)">
	</image>
	<g>
		<g>
			<g>
				<path class="st2" d="M96.1,166.7c0.7,3.1,1.5,7.2,2.2,10.3c0.4,1.6,0.7,2.7,1.9,4.4"/>
				<path class="st2" d="M93.3,167.3c-0.2,0.6,3,10.2,4.4,15.2c0.9,3.2,1.9,0.2,4.9-2.2c1.9-1.5,2.7-4.4,2.2-6.6
					c-0.6-2.7-5.4-5-6-7.5C98.2,163.4,96.1,164.5,93.3,167.3L93.3,167.3z"/>
			</g>
			<g>
				<path class="st3" d="M108.6,173.8c0.4-2-0.5-4.3-1.1-6.2c-0.3-0.9-0.8-1.9-1.5-2.5c-0.9-0.7-2-1-3.1-1.1
					c-2.6-0.3-5.2-0.1-7.8,0.6c-1.3,0.4-2.9,1.4-2.6,2.7c0.2,0.6,0.7,1,1.2,1.4c1.8,1.4,3.4,2.8,5.1,4.3c0.6,0.5,1.2,1.1,1.4,1.9
					c0.5,1.3-0.1,2.6-0.7,3.8c-1.4,2.7-3.1,5.3-4.3,8.1s-2,5.9-1.4,8.9c0.3,1.5,1,2.9,1.6,4.3c1.3,2.6,2.6,5.1,4.1,7.5"/>
			</g>
			<g>
				<path class="st4" d="M273.8,257.8c-2.1,2.6-3.3,8-2.5,10.9c0.6,2.1,1.4,4.2,2.8,5.9c3.3,3.9,9.5,4.6,14.3,2.6
					c1.4-0.6,2.6-1.3,3.9-2.1c1.6-1,3.3-2.1,4.7-3.4c2.6-2.6,4.2-6,6.1-9.2c2.6-4.5,5.8-8.6,9.5-12.1c1.9-1.8,3.9-3.6,5-6
					c1.7-3.7,0.6-8.3-2-11.3c-2.7-3.1-6.7-4.7-10.7-5.1c-4.3-0.4-13.1,2.8-13.1,2.8c-1,1.6-13.2,19.6-18.7,28.2
					c-1,1.5-1.3,3.1-2.1,4.8c-1.8,3.8-2,3.8-6.2,10.8c-4.6,7.8-3.9,9.7-20.5,18.9c-14.5,8-18.3,7.5-35.3,10.5
					c-21.1,3.7-53,1.7-65.6-3.1c-12.2-4.6-12.3-4.3-21.1-12.2c-12.6-11.3-14.7-23.3-15.5-25.3c-0.9-2.2-1.5-4.5-2-6.8
					c-3.5-15.1-5.3-48.1-5.3-48.1c2-8.2,1.8-17,4.9-24.9c1-2.4,2.2-4.8,3.3-7.1c2.3-4.9,4-10.1,5.6-15.3c1-3.2,2.6-9.1,2.6-9.1
					c1.4-4.6,2.9-9.2,4.3-13.8c1.1-3.5,2.2-7.1,3.9-10.4c2-3.7,4.7-7,7.6-10c9.4-9.7,21-17,33.3-22.5c5.3-2.4,10.8-4.4,16.4-5.7
					c8.9-2,18.2-2.3,27.3-1.9c14.7,0.7,29.9,0.2,43.1,6.5c5.5,2.6,10.7,5.7,15.7,9.2c0,0,6.6,3.9,10.7,8.1
					c5.8,5.9,14.4,16,17.9,22.2c0.8,1.5,1.6,3,2.3,4.5c4,8.9,7.8,17.8,7.9,27.5c0.1,7.7-1,14.9-3.3,22.8c0,0-2.5,8.7-3.7,13.7
					c-2.1,8.4-5.5,20.1-7.6,28.5"/>
			</g>
			<g>
				<path class="st3" d="M205.8,175.1c0.6-5.5,1.4-11.3,4.4-15.9c3.1-4.7,8.3-7.6,13.4-9.8c1.9-0.8,3.9-1.5,6-2
					c2.1-0.4,4.2-0.6,6.4-0.6c1.3,0,2.7,0,4,0.3c3,0.7,5.5,2.8,7.9,4.8c1.6,1.4,3.3,2.9,4.5,4.7c1.3,2,2,4.4,2.6,6.8
					c1.6,6.7,2.7,13.5,3.3,20.4c0.5,6.3,0.4,13.3-3.5,18.3c-3.9,5.1-10.9,7.1-17.2,6.1c-6.3-1-11.9-4.7-16.5-9.2"/>
			</g>
			<g>
				<g>
					<path class="st5" d="M103.1,209.4c2.4-9.4,8.7-16.8,17.5-20.7c1.5-0.7,0.2-2.8-1.3-2.2c-9.4,4.2-16.1,12.3-18.6,22.2
						C100.3,210.3,102.7,210.9,103.1,209.4L103.1,209.4z"/>
				</g>
			</g>
			<g>
				<path class="st6" d="M243.1,190c-3.5,0.9-6.7,2.6-10.3,2.9c-1.8,0.2-3.6,0-5.4-0.4c-6.6-1.5-12.4-6-15.4-12.1l0-0.3
					c3.4-3.4,7.6-6.3,12.3-7.3c4.7-1.1,10-0.1,13.5,3.2C241.3,179.4,242.1,185.4,243.1,190"/>
				<g>
					<path class="st6" d="M242.6,188.2c-6.8,2-12.8,4.3-19.6,0.7c-2.2-1.1-4.2-2.7-5.9-4.5c-2.9-3.1-3.5-3.5-0.2-5.9
						c5-3.7,12-5.9,17.7-2.5c5,2.9,5.6,9.4,6.7,14.5c0.5,2.4,4.1,1.4,3.6-1c-1.6-7-2.8-14.5-10.2-17.6c-7.5-3.2-15.7-0.2-21.7,4.8
						c-2.2,1.8-3.4,2.7-2.3,5.3c1.4,3.3,4.5,6.2,7.3,8.2c3.2,2.3,7,3.9,11,4.4c5.2,0.7,9.7-1.4,14.6-2.8
						C245.9,191.2,245,187.6,242.6,188.2L242.6,188.2z"/>
				</g>
			</g>
			<g>
				<path class="st3" d="M180.2,173.7c8.8-8.6,11-16.3,9.6-21.1c-2.2-7.7-7.5-14.4-14.4-18.4c-1.3-0.8-2.7-1.4-4.3-1.7
					c-2.8-0.5-5.7,0.5-8.4,1.6c-3.2,1.3-6.4,2.6-9.3,4.5c-1.4,1-2.8,2.1-4.1,3.2c-5.2,4.3-10.6,8.8-13.4,15
					c-1.6,3.5-2.3,7.4-2.6,11.3c-0.2,2.8-0.1,6,1.9,8c1.7,1.6,4.2,2,6.5,2.2C149.2,178.9,170.2,177.4,180.2,173.7"/>
			</g>
			<g>
				<path class="st6" d="M178.7,171.5c-5.1,1.2-11.4,2.1-16.5,0.7s-9.8-5-11.4-10.1c0,0,11.6-7.6,17.4-5.5S178.3,165.3,178.7,171.5"
					/>
				<g>
					<path class="st6" d="M178.2,169.7c-9.2,2-21.6,2.6-25.6-8.1c-0.3,0.7-0.6,1.4-0.9,2.1c3.2-2.1,6.7-4,10.4-5
						c8.1-2.2,13.9,5.2,14.7,12.7c0.3,2.4,4,2.4,3.8,0c-0.8-7.3-5.6-16.2-13.7-17.1c-5.8-0.6-12.3,3-17,6.1
						c-0.6,0.4-1.2,1.3-0.9,2.1c4.8,12.8,18.8,13.2,30.2,10.7C181.6,172.8,180.6,169.2,178.2,169.7L178.2,169.7z"/>
				</g>
			</g>
			<g>
				<path class="st3" d="M179.9,184.1c-3.3-1.5-7.1-1.9-10.7-1.1c-6.1,1.3-13.9,10.5-13.9,10.5c-4.8-0.3-9.7,0.1-14.4,1.2
					c-3.3,0.7-6.6,1.8-9.5,3.4c-3.3,1.8-6.2,4.3-9,7c-3,2.8-5.9,6-6.7,10l-1.9,7.2c-1.5,9.6-0.4,19.1,2,28.5c1,3.9,2.6,8.1,4.7,11.5
					c1.8,3.1,3.7,6.2,6,8.8c2.9,3.3,5.7,6.2,13.7,10.3c11.2,5.8,15.3,6.1,29.1,6.1c10.2,0,11.2,0,19.9-1.9c3.4-0.7,7-1.2,10.2-2.7
					c10.6-5.2,12.1-7.2,16.8-12.4c6.1-6.7,7.4-7.9,10.8-13.9l5.8-19c0-3.2-0.4-6.5-1.6-9.5c-3-7.5-10.3-12.1-15-18.7
					c-2-2.8-3.4-5.9-5.3-8.7c-1.9-2.8-4.3-5.4-7.5-6.6"/>
			</g>
			<g>
				<path class="st7" d="M173.9,201.6c1.9,0.1,1.5,4,2.6,2.8c1.4-1.4-1.6-6.4-2.7-7.7c-0.6-0.7-1.2-1.4-2-1.8c-1-0.4-2.2-0.2-3,0.5
					c-0.8,0.7-1.2,1.9-0.9,2.9c0.2,0.7,0.6,1.2,1.1,1.7C169.4,200.5,169.9,204.4,173.9,201.6"/>
				<g>
					<path class="st8" d="M179.1,205.4c0.7-2.9-0.1-5.7-1.7-8.1c-1.4-2.2-3.4-5-6.3-5.2c-2.5-0.1-4.6,1.7-4.9,4.2
						c-0.3,2.7,1.7,4.8,3.9,6c2.1,1.2,4-2.1,1.9-3.2c-0.7-0.4-2.2-1.3-2.1-2.3c0.3-2.2,2.4,0.1,3,0.8c1.6,2,3.1,4.2,2.5,6.9
						C174.9,206.7,178.5,207.7,179.1,205.4L179.1,205.4z"/>
				</g>
			</g>
			<g>
				<path class="st7" d="M189.7,204.8c-6.5,7.2-3.6-2.2-2.4-3.2c1-0.8,2.3-1,3.5-1.1c2.2-0.2,4.5-0.2,6.7,0c0.9,0.1,1.9,0.2,2.6,0.8
					c0.7,0.6-0.9,3.6-1.4,4.3c-0.4,0.5,0.9,3-5.6-0.7C192.3,204.4,190.6,204,189.7,204.8"/>
				<g>
					<path class="st8" d="M187.9,205.3c-1.1-3.3,3.5-3,5.4-3.1c1.1,0,2.3-0.1,3.3,0.1c1.4,0.3,1.7,0.3,0.4,1
						c-2.1,1.2-0.2,4.4,1.9,3.2c2-1.1,4.2-1.9,3.5-4.7c-0.8-3.1-4.3-3.3-6.9-3.4c-4.8-0.2-13.8,0.5-11.3,7.8
						C185.1,208.6,188.7,207.6,187.9,205.3L187.9,205.3z"/>
				</g>
			</g>
			<g>
				<g>
					<path class="st5" d="M185.7,169.6c-3.9,4.3-6.5,7.3-12.5,8.7c-5.2,1.2-10.5,2.3-15.7,3.2c-9.7,1.7-19.9,0-29.3,3
						c-1.5,0.5-0.9,2.9,0.7,2.4c10.5-3.4,22.2-1.6,33-3.7c5.4-1.1,11.5-1.7,16.6-3.7c4-1.6,6.3-5,9.1-8.1
						C188.5,170.1,186.8,168.4,185.7,169.6L185.7,169.6z"/>
				</g>
			</g>
			<g>
				<g>
					<path class="st5" d="M204.6,179.9c1.7,8.6,5.6,16.6,11.9,22.8c7.9,7.7,17.4,12.6,25.9,19.5c1.2,1,3-0.8,1.8-1.8
						c-7.5-6.1-16.2-10.4-23.4-17c-7.2-6.7-11.9-14.4-13.8-24.1C206.7,177.7,204.3,178.3,204.6,179.9L204.6,179.9z"/>
				</g>
			</g>
			<g>
				<path class="st3" d="M277,258.4c-0.6,2.5-1.9,3.6-1.3,6.1c0.6,2.5,2.8,4.9,5.4,4.7c2.8-0.1,4.7-2.9,7.4-3.7
					c1.7-0.5,3.5-0.3,5.2-0.5c3-0.4,3.6-3.5,5.1-6.1c1.9-3.5,3.6-6.6,3.1-10.6c-0.4-3.2-0.9-6.5-1.3-9.7"/>
			</g>
			<g>
				<path class="st3" d="M289.9,248.1c1.6-3.8,4.8-6.8,8.5-8.5s7.9-2.2,12-1.7c1.3,0.2,2.9,0.6,3.3,1.9c0.4,1.1-0.2,2.2-0.7,3.2
					c-0.7,1.4-1.4,2.7-2.2,4.1"/>
			</g>
			<g>
				<path class="st9" d="M228.9,170.6c-8.1-1.9-9.5,10.8-9.1,16.4c0.1,1.2,0.3,2.6,1,3.5c0.7,0.9,1.7,1.3,2.8,1.7
					c3.7,1.3,8.1,1.9,11.1-0.7c1.9-1.7,2.8-4.3,3.4-6.9C238.8,181.4,240.7,172.3,228.9,170.6"/>
			</g>
			<g>
				<path class="st9" d="M166.3,154.4c-8.3-0.1-8.5,9.7-7.8,14.9c0.1,0.6,0.2,1.2,0.5,1.7c0.4,0.6,0.9,0.9,1.5,1.2
					c2.4,1,5.2,0.5,7.4-0.9c2.2-1.4,3.7-3.6,4.9-5.9c1.1-2.2,2.5-9.3-3.3-10.4"/>
			</g>
			<g>
				<g>
					<path class="st8" d="M110.7,212.2c1.6,4.1,3.9,5.4,7.6,7.4c5.1,2.7,10.1,5.3,15.2,7.9c12,6.1,24.2,13,37,17.2
						c12.9,4.3,27.2,7.4,40.7,8c9.4,0.4,20.3-1,27.9-7c1.9-1.5-0.8-4.1-2.7-2.7c-7.5,6-19.1,6.5-28.2,5.8c-12.2-1-25.2-3.8-36.8-7.6
						c-11.2-3.7-21.9-9.8-32.5-15c-4.5-2.2-8.9-4.5-13.4-6.8c-3.9-2-9.7-3.7-11.4-8C113.4,209,109.8,210,110.7,212.2L110.7,212.2z"
						/>
				</g>
			</g>
		</g>
	</g>
</g>
</svg>
