<?xml version="1.0" encoding="utf-8"?>
<!-- Generator: Adobe Illustrator 22.0.1, SVG Export Plug-In . SVG Version: 6.00 Build 0)  -->
<svg version="1.1"
	 id="svg2989" inkscape:version="0.48.3.1 r9886" sodipodi:docname="play_circle_font_awesome.svg" xmlns:cc="http://creativecommons.org/ns#" xmlns:dc="http://purl.org/dc/elements/1.1/" xmlns:inkscape="http://www.inkscape.org/namespaces/inkscape" xmlns:rdf="http://www.w3.org/1999/02/22-rdf-syntax-ns#" xmlns:sodipodi="http://sodipodi.sourceforge.net/DTD/sodipodi-0.dtd" xmlns:svg="http://www.w3.org/2000/svg"
	 xmlns="http://www.w3.org/2000/svg" xmlns:xlink="http://www.w3.org/1999/xlink" x="0px" y="0px" viewBox="0 0 1000 1000"
	 style="enable-background:new 0 0 1000 1000;" xml:space="preserve">
<style type="text/css">
	.st0{fill:#FEE7C9;}
</style>
<sodipodi:namedview  bordercolor="#666666" borderopacity="1" gridtolerance="10" guidetolerance="10" id="namedview2995" inkscape:current-layer="svg2989" inkscape:cx="896" inkscape:cy="896" inkscape:pageopacity="0" inkscape:pageshadow="2" inkscape:window-height="480" inkscape:window-maximized="0" inkscape:window-width="640" inkscape:window-x="0" inkscape:window-y="25" inkscape:zoom="0.13169643" objecttolerance="10" pagecolor="#ffffff" showgrid="false">
	</sodipodi:namedview>
<g id="g2991" transform="matrix(1,0,0,-1,136.67797,1277.8305)">
	<path id="path2993" inkscape:connector-curvature="0" class="st0" d="M550.4,779.1c0-11.3-5-19.8-15.1-25.6L300.9,621.6
		c-4.3-2.4-9-3.7-14.2-3.7c-5.2,0-10.1,1.4-14.7,4.1c-9.8,5.5-14.7,13.9-14.7,25.2V911c0,11.3,4.9,19.7,14.7,25.2
		c9.5,6.1,19.1,6.3,28.8,0.5l234.4-131.9C545.4,798.9,550.4,790.4,550.4,779.1z M723.7,779c0,48.1-9.4,94.1-28.1,137.8
		c-18.7,43.7-44.1,81.6-76,113.5c-31.9,31.9-69.8,57.3-113.5,76c-43.7,18.7-89.7,28.1-137.8,28.1s-94.1-9.4-137.8-28.1
		c-43.7-18.8-81.6-44.1-113.5-76c-31.9-31.9-57.3-69.8-76-113.5C22,873.1,12.6,827.2,12.6,779c0-48.1,9.4-94.1,28.1-137.8
		c18.7-43.8,44.1-81.6,76-113.5s69.8-57.3,113.5-76c43.7-18.7,89.7-28.1,137.8-28.1s94.1,9.4,137.8,28.1
		c43.7,18.8,81.6,44.1,113.5,76c31.9,31.9,57.3,69.8,76,113.5C714.3,684.9,723.7,730.9,723.7,779z M796.7,779
		c0-78.7-19.6-151.2-58.9-217.5c-37.1-62.7-89.5-115.1-152.2-152.2c-66.3-39.2-138.8-58.9-217.5-58.9c-78.7,0-151.2,19.6-217.5,58.9
		C88,446.4,35.6,498.9-1.5,561.6C-40.8,627.9-60.4,700.4-60.4,779s19.6,151.2,58.9,217.5c37.1,62.7,89.5,115.1,152.2,152.2
		c66.3,39.2,138.8,58.9,217.5,58.9c78.7,0,151.2-19.6,217.5-58.9c62.7-37.1,115.1-89.5,152.2-152.2
		C777.1,930.2,796.7,857.7,796.7,779z"/>
</g>
</svg>
