<?xml version="1.0" encoding="utf-8"?>
<!-- Generator: Adobe Illustrator 22.0.1, SVG Export Plug-In . SVG Version: 6.00 Build 0)  -->
<svg version="1.1" id="Layer_1" xmlns="http://www.w3.org/2000/svg" xmlns:xlink="http://www.w3.org/1999/xlink" x="0px" y="0px"
	 viewBox="0 0 400 400" style="enable-background:new 0 0 400 400;" xml:space="preserve">
<style type="text/css">
	.st0{fill:#FFE7C7;}
</style>
<g>
	<g>
		<path class="st0" d="M28.5,200c0,67.9,39.4,126.5,96.6,154.3L43.4,130.2C33.8,151.5,28.5,175.1,28.5,200z"/>
		<path class="st0" d="M315.8,191.3c0-21.2-7.6-35.9-14.1-47.3c-8.7-14.1-16.8-26.1-16.8-40.2c0-15.8,12-30.4,28.8-30.4
			c0.8,0,1.5,0.1,2.2,0.1c-30.5-28-71.2-45-115.8-45c-59.9,0-112.6,30.7-143.3,77.3c4,0.1,7.8,0.2,11,0.2c17.9,0,45.7-2.2,45.7-2.2
			c9.2-0.5,10.3,13,1.1,14.1c0,0-9.3,1.1-19.6,1.6l62.4,185.7l37.5-112.6l-26.7-73.2c-9.2-0.5-18-1.6-18-1.6
			c-9.2-0.5-8.2-14.7,1.1-14.1c0,0,28.3,2.2,45.2,2.2c17.9,0,45.7-2.2,45.7-2.2c9.3-0.5,10.3,13,1.1,14.1c0,0-9.3,1.1-19.6,1.6
			l62,184.3l17.1-57.2C310.1,223.1,315.8,206,315.8,191.3z"/>
		<path class="st0" d="M203,215l-51.5,149.5c15.4,4.5,31.6,7,48.4,7c20,0,39.1-3.5,56.9-9.7c-0.5-0.7-0.9-1.5-1.2-2.4L203,215z"/>
		<path class="st0" d="M350.5,117.7c0.7,5.5,1.2,11.3,1.2,17.6c0,17.4-3.3,37-13,61.4l-52.4,151.4c51-29.7,85.3-85,85.3-148.2
			C371.5,170.2,363.9,142.1,350.5,117.7z"/>
		<path class="st0" d="M200,0.1C89.8,0.1,0.1,89.8,0.1,200c0,110.2,89.7,199.9,199.9,199.9c110.2,0,199.9-89.7,199.9-199.9
			C399.9,89.8,310.2,0.1,200,0.1z M200,390.7C94.8,390.7,9.3,305.2,9.3,200C9.3,94.8,94.8,9.3,200,9.3
			c105.2,0,190.7,85.6,190.7,190.7C390.7,305.2,305.2,390.7,200,390.7z"/>
	</g>
</g>
</svg>
