<?xml version="1.0" encoding="utf-8"?>
<!-- Generator: Adobe Illustrator 22.0.1, SVG Export Plug-In . SVG Version: 6.00 Build 0)  -->
<svg version="1.1" id="Layer_1" xmlns="http://www.w3.org/2000/svg" xmlns:xlink="http://www.w3.org/1999/xlink" x="0px" y="0px"
	 viewBox="0 0 400 400" style="enable-background:new 0 0 400 400;" xml:space="preserve">
<style type="text/css">
	.st0{fill:#FFE7C7;}
</style>
<path class="st0" d="M391.7,103.8c-4.5-17.2-18.2-30.8-35.4-35.4C325.1,60.1,200,60.1,200,60.1s-125.1,0-156.3,8.3
	c-17.2,4.5-30.8,18.2-35.4,35.4C0,135,0,200,0,200s0,65,8.3,96.2c4.5,17.2,18.2,30.8,35.4,35.4c31.2,8.3,156.3,8.3,156.3,8.3
	s125.1,0,156.3-8.3c17.2-4.5,30.8-18.2,35.4-35.4C400,265,400,200,400,200S400,135,391.7,103.8z M160.1,260.1v-120l104,60.1
	L160.1,260.1z"/>
</svg>
